<?xml version="1.0" standalone="no"?><!DOCTYPE svg PUBLIC "-//W3C//DTD SVG 1.1//EN" "http://www.w3.org/Graphics/SVG/1.1/DTD/svg11.dtd"><svg width="100%" height="100%" viewBox="0 0 2298 336" version="1.1" xmlns="http://www.w3.org/2000/svg" xmlns:xlink="http://www.w3.org/1999/xlink" xml:space="preserve" style="fill-rule:evenodd;clip-rule:evenodd;stroke-linejoin:round;stroke-miterlimit:1.41421;"><g id="Layer1"><path d="M450.042,336.388c0,0 -15.2575,-0.0376383 -39.9701,-0.0148373c-25.3466,0.0233859 -60.6398,0.0481262 -99.619,0.0148373c-10.0637,-0.00859456 -20.3836,-0.0706667 -30.8326,-0.0718658c-12.905,-0.00148097 -26.0115,0.114507 -39.1313,0.0718658c-41.1916,-0.133878 -73.2845,-0.347291 -105.633,-0.095415c-2.62482,0.0204376 -5.1981,0.0141945 -7.74953,0.00833127c-31.4686,-0.0723151 -58.7124,-5.09328 -81.4424,-29.093c-39.8075,-42.0312 -54.5187,-140.377 -40.4514,-204.097c4.73284,-21.4381 10.6714,-39.7814 20.9854,-54.4114c10.314,-14.6299 24.7638,-26.404 43.3494,-35.3223c18.5856,-8.91825 39.0094,-13.3774 61.2713,-13.3774c38.1924,0 70.513,11.9244 96.9618,35.7732c26.4488,23.8488 39.6732,66.937 39.6732,129.265l0,113.031l182.588,0l1.13687e-13,58.3193ZM215.009,278.028l-0.555624,-113.892c0,-37.6771 -7.14832,-64.4319 -21.4449,-80.2643c-14.2966,-15.8324 -34.414,-23.7486 -60.3522,-23.7486c-18.7899,0 -34.8736,4.65954 -48.2511,13.9786c-13.3776,9.31907 -22.2108,21.5942 -26.4998,36.8254c-2.65509,9.8201 -11.4934,82.3617 8.15545,126.994c10.36,23.533 42.8022,40.1873 71.4618,40.1067c35.553,-0.100009 77.4865,6.82121e-13 77.4865,6.82121e-13Z" style="fill:url(#tag1);fill-rule:nonzero;"/><path d="M124.299,336.405l325.742,1.92131e-11l-4.54747e-11,-58.3764c0,0 -93.1579,-1.85462 -183.782,4.49063e-12c-36.7339,0.751757 -70.5217,-5.2065 -91.7543,-4.05862e-11c-12.0953,2.96592 -27.5039,13.5446 -40.3341,38.0679c-5.11996,9.78612 -9.87202,20.3085 -9.87202,20.3085Z" style="fill:url(#tag2);"/><path d="M450.042,278.028l-275.707,2.27374e-13c0,-2.27374e-13 18.8951,-3.82774 24.6014,-16.1692c11.5495,-24.9791 16.2374,-70.9638 15.519,-93.6648c-1.05117,-33.2163 0.0452486,-61.8452 -31.0452,-93.5672c-31.559,-32.2 -22.2866,-71.8176 -22.2866,-71.8176c0,0 44.1168,3.61722 78.0535,45.1237c16.8768,20.6412 28.3814,61.2673 28.4797,106.577c0.257261,118.571 182.385,123.518 182.385,123.518Z" style="fill:url(#tag3);"/></g><path d="M509.637,333.269l0,-248.43l9.92951,0c1.65492,0 2.99158,0.338126 4.00999,1.01438c1.01841,0.676252 1.59127,1.87506 1.71857,3.59643l1.71857,28.4026c8.40189,-11.0659 18.2359,-19.8572 29.5021,-26.3738c11.2662,-6.51661 23.9008,-9.77491 37.904,-9.77491c23.4235,0 41.6276,7.80764 54.6123,23.4229c12.9847,15.6153 19.4771,39.0382 19.4771,70.2687c0,13.4021 -1.81405,25.9127 -5.44214,37.532c-3.62809,11.6192 -8.94292,21.7015 -15.9445,30.2469c-7.00158,8.54536 -15.6262,15.2771 -25.874,20.1953c-10.2478,4.9182 -22.055,7.37729 -35.4216,7.37729c-12.9847,0 -24.1873,-2.27467 -33.6076,-6.824c-9.4203,-4.54933 -17.5676,-11.3118 -24.4419,-20.2876l0,89.6341l-18.1405,0ZM589.264,95.9048c-12.6028,0 -24.0281,3.16609 -34.2759,9.49827c-10.2478,6.33218 -19.318,15.1542 -27.2107,26.466l0,96.2737c7.25618,10.5741 15.308,18.0129 24.1554,22.3163c8.84745,4.30342 18.9361,6.45513 30.2659,6.45513c11.2025,0 21.0047,-1.96728 29.4066,-5.90183c8.40189,-3.93456 15.4353,-9.49827 21.1002,-16.6911c5.66491,-7.19286 9.92951,-15.7997 12.7938,-25.8205c2.86428,-10.0208 4.29642,-21.056 4.29642,-33.1056c0,-27.296 -5.18753,-47.3684 -15.5626,-60.2172c-10.3751,-12.8488 -25.3648,-19.2732 -44.9692,-19.2732Z" style="fill:#000;fill-rule:nonzero;"/><path d="M710.71,84.8389l0,206.933c0,6.39365 -0.954761,12.2955 -2.86428,17.7055c-1.90952,5.41002 -4.74198,10.113 -8.49737,14.1091c-3.75539,3.99603 -8.46554,7.13138 -14.1305,9.40605c-5.66491,2.27467 -12.3164,3.412 -19.9545,3.412c-3.69174,0 -7.00158,-0.307387 -9.92951,-0.922162c-2.92793,-0.614774 -5.79221,-1.59841 -8.59285,-2.95092l0.954761,-8.85275c0.127301,-1.47546 1.01841,-2.21319 2.67333,-2.21319c1.01841,0 2.45055,0.24591 4.29642,0.737729c1.84587,0.49182 4.36007,0.737729 7.54261,0.737729c10.3114,0 17.9495,-2.70501 22.9143,-8.11502c4.96476,-5.41002 7.44713,-13.0947 7.44713,-23.054l0,-206.933l18.1405,0ZM718.73,21.5786c0,2.21319 -0.47738,4.27268 -1.43214,6.17848c-0.954761,1.9058 -2.19595,3.59643 -3.72357,5.07189c-1.52762,1.47546 -3.30984,2.64353 -5.34666,3.50421c-2.03682,0.860684 -4.20095,1.29103 -6.49237,1.29103c-2.29143,1.13687e-13 -4.45555,-0.430342 -6.49237,-1.29103c-2.03682,-0.860684 -3.81904,-2.02876 -5.34666,-3.50421c-1.52762,-1.47546 -2.73698,-3.16609 -3.62809,-5.07189c-0.89111,-1.9058 -1.33666,-3.9653 -1.33666,-6.17848c0,-2.21319 0.445555,-4.33416 1.33666,-6.36292c0.89111,-2.02876 2.10047,-3.78086 3.62809,-5.25632c1.52762,-1.47546 3.30984,-2.64353 5.34666,-3.50421c2.03682,-0.860684 4.20095,-1.29103 6.49237,-1.29103c2.29143,0 4.45555,0.430342 6.49237,1.29103c2.03682,0.860684 3.81904,2.02876 5.34666,3.50421c1.52762,1.47546 2.76881,3.22757 3.72357,5.25632c0.954761,2.02876 1.43214,4.14973 1.43214,6.36292Z" style="fill:#000;fill-rule:nonzero;"/><path d="M750.428,268.349l0,-268.349l18.1405,0l0,116.192c8.7838,-10.4512 18.8088,-18.7814 30.075,-24.9906c11.2662,-6.20922 23.9008,-9.31383 37.904,-9.31383c10.4387,0 19.6362,1.59841 27.5926,4.79524c7.95634,3.19683 14.5442,7.80764 19.7635,13.8324c5.21936,6.02479 9.1657,13.2791 11.839,21.763c2.67333,8.48389 4.00999,18.0744 4.00999,28.7714l0,117.299l-18.1405,0l0,-117.299c0,-17.2137 -4.07365,-30.708 -12.2209,-40.4829c-8.14729,-9.77491 -20.6228,-14.6624 -37.4266,-14.6624c-12.4755,0 -24.06,3.10461 -34.7533,9.31383c-10.6933,6.20922 -20.2409,14.7238 -28.6428,25.5439l0,137.587l-18.1405,0Z" style="fill:#000;fill-rule:nonzero;"/><path d="M1051.56,268.349c-3.81904,0 -6.17412,-1.72137 -7.06523,-5.16411l-2.67333,-23.4229c-5.21936,4.9182 -10.4069,9.34457 -15.5626,13.2791c-5.15571,3.93456 -10.5342,7.25434 -16.1355,9.95935c-5.60126,2.70501 -11.6481,4.7645 -18.1405,6.17848c-6.49237,1.41398 -13.6213,2.12097 -21.3866,2.12097c-6.49237,0 -12.7938,-0.922162 -18.9043,-2.76649c-6.11047,-1.84432 -11.5208,-4.67229 -16.2309,-8.48389c-4.71015,-3.8116 -8.49737,-8.69906 -11.3617,-14.6624c-2.86428,-5.96331 -4.29642,-13.1254 -4.29642,-21.4864c0,-7.74616 2.29143,-14.939 6.87428,-21.5786c4.58285,-6.63956 11.7436,-12.4184 21.4821,-17.3366c9.73856,-4.9182 22.2777,-8.85275 37.6176,-11.8037c15.3398,-2.95092 33.7667,-4.67229 55.2806,-5.16411l0,-19.181c0,-16.9678 -3.78722,-30.0317 -11.3617,-39.1919c-7.57443,-9.16014 -18.8088,-13.7402 -33.7031,-13.7402c-9.1657,0 -16.9629,1.22955 -23.3916,3.68865c-6.42872,2.4591 -11.8709,5.16411 -16.3264,8.11502c-4.45555,2.95092 -8.08364,5.65592 -10.8843,8.11502c-2.80063,2.4591 -5.15571,3.68865 -7.06523,3.68865c-2.54603,0 -4.45555,-1.10659 -5.72856,-3.31978l-3.24619,-5.34854c9.92951,-9.59048 20.3682,-16.8448 31.3161,-21.763c10.9479,-4.9182 23.3598,-7.37729 37.2357,-7.37729c10.1841,0 19.0952,1.56767 26.7333,4.70302c7.63809,3.13535 13.9713,7.6232 18.9997,13.4636c5.02841,5.84036 8.81562,12.9103 11.3617,21.2097c2.54603,8.29946 3.81904,17.5518 3.81904,27.7571l0,119.512l-7.25618,0ZM975.178,258.574c7.38348,0 14.1623,-0.768468 20.3364,-2.3054c6.17412,-1.53694 11.9027,-3.68865 17.1857,-6.45513c5.28301,-2.76649 10.2159,-6.05553 14.7988,-9.86713c4.58285,-3.8116 9.10205,-7.93059 13.5576,-12.357l0,-47.768c-18.0768,0.49182 -33.6394,1.81358 -46.6878,3.9653c-13.0484,2.15171 -23.8054,5.07189 -32.2709,8.76054c-8.46554,3.68865 -14.7033,8.08428 -18.7133,13.1869c-4.00999,5.10263 -6.01499,10.9122 -6.01499,17.4289c0,6.14774 1.05024,11.4655 3.15071,15.9534c2.10047,4.48785 4.86928,8.1765 8.30642,11.0659c3.43714,2.88944 7.44713,5.01041 12.03,6.36292c4.58285,1.3525 9.35665,2.02876 14.3214,2.02876Z" style="fill:#000;fill-rule:nonzero;"/><path d="M1102.93,84.8389l0,117.299c0,17.2137 4.07365,30.708 12.2209,40.4829c8.14729,9.77491 20.5592,14.6624 37.2357,14.6624c12.3482,0 23.869,-3.04313 34.5623,-9.1294c10.6933,-6.08627 20.3046,-14.5394 28.8338,-25.3594l0,-137.955l18.3314,0l0,183.51l-10.1205,0c-3.56444,0 -5.41031,-1.59841 -5.53761,-4.79524l-1.71857,-27.296c-8.7838,10.5741 -18.9361,19.058 -30.4569,25.4517c-11.5208,6.39365 -24.3464,9.59048 -38.4769,9.59048c-10.566,0 -19.7954,-1.59841 -27.6881,-4.79524c-7.89269,-3.19683 -14.4487,-7.80764 -19.6681,-13.8324c-5.21936,-6.02479 -9.1657,-13.2791 -11.839,-21.763c-2.67333,-8.48389 -4.00999,-18.0744 -4.00999,-28.7714l0,-117.299l18.3314,0Z" style="fill:#000;fill-rule:nonzero;"/><path d="M1373.89,107.524c-0.89111,1.72137 -2.29143,2.58205 -4.20095,2.58205c-1.40032,0 -3.21436,-0.768468 -5.44214,-2.3054c-2.22777,-1.53694 -5.15571,-3.2583 -8.7838,-5.16411c-3.62809,-1.9058 -8.08364,-3.62717 -13.3666,-5.16411c-5.28301,-1.53694 -11.7436,-2.3054 -19.3816,-2.3054c-6.87428,0 -13.1439,0.9529 -18.8088,2.8587c-5.66491,1.9058 -10.5024,4.45711 -14.5124,7.65394c-4.00999,3.19683 -7.12888,6.91621 -9.35665,11.1582c-2.22777,4.24194 -3.34166,8.69906 -3.34166,13.3713c0,5.77888 1.52762,10.5741 4.58285,14.3857c3.05523,3.8116 7.06523,7.06991 12.03,9.77491c4.96476,2.70501 10.5978,5.04115 16.8993,7.00843c6.30142,1.96728 12.762,3.93456 19.3816,5.90183c6.61967,1.96728 13.0802,4.14973 19.3816,6.54735c6.30142,2.39762 11.9345,5.37928 16.8993,8.94497c4.96476,3.56569 8.97475,7.93059 12.03,13.0947c3.05523,5.16411 4.58285,11.4348 4.58285,18.8121c0,7.99207 -1.49579,15.4308 -4.48737,22.3163c-2.99158,6.88547 -7.31983,12.8488 -12.9847,17.8899c-5.66491,5.04115 -12.6347,9.03718 -20.9093,11.9881c-8.27459,2.95092 -17.6949,4.42638 -28.2609,4.42638c-13.3666,0 -24.8874,-2.05949 -34.5623,-6.17848c-9.67491,-4.11899 -18.3314,-9.49827 -25.9695,-16.1378l4.3919,-6.2707c0.636507,-0.983639 1.33666,-1.72137 2.10047,-2.21319c0.763809,-0.49182 1.84587,-0.737729 3.24619,-0.737729c1.65492,0 3.69174,0.983639 6.11047,2.95092c2.41873,1.96728 5.56944,4.08825 9.45213,6.36292c3.88269,2.27467 8.72015,4.39564 14.5124,6.36292c5.79221,1.96728 12.9529,2.95092 21.4821,2.95092c8.01999,0 15.0852,-1.07586 21.1957,-3.22757c6.11047,-2.15171 11.2025,-5.07189 15.2762,-8.76054c4.07365,-3.68865 7.1607,-8.02281 9.26118,-13.0025c2.10047,-4.97967 3.15071,-10.236 3.15071,-15.769c0,-6.14774 -1.52762,-11.2504 -4.58285,-15.3079c-3.05523,-4.05751 -7.06523,-7.50025 -12.03,-10.3282c-4.96476,-2.82796 -10.5978,-5.22558 -16.8993,-7.19286c-6.30142,-1.96728 -12.7938,-3.93456 -19.4771,-5.90183c-6.68332,-1.96728 -13.1757,-4.11899 -19.4771,-6.45513c-6.30142,-2.33614 -11.9345,-5.28706 -16.8993,-8.85275c-4.96476,-3.56569 -8.97475,-7.89985 -12.03,-13.0025c-3.05523,-5.10263 -4.58285,-11.4655 -4.58285,-19.0887c0,-6.51661 1.46397,-12.7873 4.3919,-18.8121c2.92793,-6.02479 7.09705,-11.3118 12.5074,-15.8612c5.41031,-4.54933 11.9982,-8.1765 19.7635,-10.8815c7.76539,-2.70501 16.4855,-4.05751 26.1604,-4.05751c11.5844,0 21.864,1.59841 30.8388,4.79524c8.97475,3.19683 17.2175,8.11502 24.7283,14.7546l-4.00999,6.08627Z" style="fill:#000;fill-rule:nonzero;"/><path d="M1478.34,81.888c10.6933,0 20.591,1.78285 29.6931,5.34854c9.10205,3.56569 16.9947,8.76054 23.6781,15.5845c6.68332,6.824 11.9027,15.2157 15.6581,25.175c3.75539,9.95935 5.63309,21.3942 5.63309,34.3044c0,2.70501 -0.41373,4.54933 -1.24119,5.53297c-0.827459,0.983639 -2.1323,1.47546 -3.91452,1.47546l-137.295,0l0,3.50421c0,13.7709 1.65492,25.882 4.96476,36.3332c3.30984,10.4512 8.01999,19.2117 14.1305,26.2816c6.11047,7.06991 13.494,12.3877 22.1504,15.9534c8.6565,3.56569 18.3314,5.34854 29.0247,5.34854c9.54761,0 17.8222,-1.01438 24.8238,-3.04313c7.00158,-2.02876 12.8893,-4.30342 17.6631,-6.824c4.7738,-2.52058 8.56102,-4.79524 11.3617,-6.824c2.80063,-2.02876 4.83745,-3.04313 6.11047,-3.04313c1.65492,0 2.92793,0.614774 3.81904,1.84432l4.96476,5.90183c-3.05523,3.68865 -7.09705,7.13138 -12.1255,10.3282c-5.02841,3.19683 -10.6297,5.93257 -16.8038,8.20724c-6.17412,2.27467 -12.7938,4.08825 -19.859,5.44075c-7.06523,1.3525 -14.1623,2.02876 -21.2912,2.02876c-12.9847,0 -24.8238,-2.18245 -35.5171,-6.54735c-10.6933,-4.3649 -19.859,-10.7278 -27.4971,-19.0887c-7.63809,-8.36093 -13.5258,-18.5969 -17.6631,-30.708c-4.1373,-12.1111 -6.20594,-25.9742 -6.20594,-41.5895c0,-13.1562 1.94135,-25.298 5.82404,-36.4254c3.88269,-11.1274 9.48396,-20.7179 16.8038,-28.7714c7.31983,-8.05355 16.2946,-14.355 26.9242,-18.9043c10.6297,-4.54933 22.6915,-6.824 36.1854,-6.824ZM1478.53,94.9827c-9.80221,0 -18.586,1.47546 -26.3514,4.42638c-7.76539,2.95092 -14.4805,7.19286 -20.1454,12.7258c-5.66491,5.53297 -10.2478,12.1725 -13.7486,19.9187c-3.50079,7.74616 -5.82404,16.4145 -6.96975,26.005l125.265,0c0,-9.83639 -1.40032,-18.6584 -4.20095,-26.466c-2.80063,-7.80764 -6.74698,-14.4165 -11.839,-19.8265c-5.09206,-5.41002 -11.2025,-9.55974 -18.3314,-12.4492c-7.12888,-2.88944 -15.0216,-4.33416 -23.6781,-4.33416Z" style="fill:#000;fill-rule:nonzero;"/><path d="M1575.15,268.349l0,-183.51l9.54761,0c2.16412,0 3.72357,0.430342 4.67833,1.29103c0.954761,0.860684 1.49579,2.33614 1.62309,4.42638l1.52762,38.7308c6.11047,-14.8775 14.2578,-26.5275 24.4419,-34.9499c10.1841,-8.42241 22.7233,-12.6336 37.6176,-12.6336c5.72856,0 11.0116,0.584036 15.849,1.75211c4.83745,1.16807 9.4203,2.8587 13.7486,5.07189l-2.48238,12.1725c-0.381904,1.96728 -1.65492,2.95092 -3.81904,2.95092c-0.763809,0 -1.84587,-0.24591 -3.24619,-0.737729c-1.40032,-0.49182 -3.15071,-1.04512 -5.25118,-1.65989c-2.10047,-0.614774 -4.67833,-1.16807 -7.73356,-1.65989c-3.05523,-0.49182 -6.55602,-0.737729 -10.5024,-0.737729c-14.3851,0 -26.1923,4.30342 -35.4216,12.9103c-9.22935,8.60684 -16.7083,21.0253 -22.4369,37.2553l0,119.328l-18.1405,0Z" style="fill:#000;fill-rule:nonzero;"/><path d="M1665.28,254.148c0,-2.33614 0.445555,-4.54933 1.33666,-6.63956c0.89111,-2.09023 2.1323,-3.90382 3.72357,-5.44075c1.59127,-1.53694 3.43714,-2.76649 5.53761,-3.68865c2.10047,-0.922162 4.42372,-1.38324 6.96975,-1.38324c2.41873,0 4.71015,0.461081 6.87428,1.38324c2.16412,0.922162 4.04182,2.15171 5.63309,3.68865c1.59127,1.53694 2.86428,3.35052 3.81904,5.44075c0.954761,2.09023 1.43214,4.30342 1.43214,6.63956c0,2.4591 -0.47738,4.70302 -1.43214,6.73178c-0.954761,2.02876 -2.22777,3.8116 -3.81904,5.34854c-1.59127,1.53694 -3.46896,2.73575 -5.63309,3.59643c-2.16412,0.860684 -4.45555,1.29103 -6.87428,1.29103c-4.96476,0 -9.13388,-1.62915 -12.5074,-4.88746c-3.37349,-3.2583 -5.06023,-7.28508 -5.06023,-12.0803Z" style="fill:#000;fill-rule:nonzero;"/><path d="M1849.93,109.368c-0.636507,0.614774 -1.24119,1.13733 -1.81405,1.56767c-0.572856,0.430342 -1.36849,0.645513 -2.3869,0.645513c-1.27301,0 -3.02341,-0.829946 -5.25118,-2.48984c-2.22777,-1.65989 -5.18753,-3.47348 -8.87927,-5.44075c-3.69174,-1.96728 -8.30642,-3.78086 -13.844,-5.44075c-5.53761,-1.65989 -12.2528,-2.48984 -20.1454,-2.48984c-10.9479,0 -20.6547,1.87506 -29.1202,5.62519c-8.46554,3.75012 -15.5944,9.1294 -21.3866,16.1378c-5.79221,7.00843 -10.2159,15.4923 -13.2712,25.4517c-3.05523,9.95935 -4.58285,21.1482 -4.58285,33.5667c0,12.9103 1.55944,24.3451 4.67833,34.3044c3.11888,9.95935 7.54261,18.351 13.2712,25.175c5.72856,6.824 12.6665,12.0188 20.8138,15.5845c8.14729,3.56569 17.1857,5.34854 27.1152,5.34854c9.1657,0 16.8356,-1.04512 23.0097,-3.13535c6.17412,-2.09023 11.2662,-4.3649 15.2762,-6.824c4.00999,-2.4591 7.19253,-4.73376 9.54761,-6.824c2.35508,-2.09023 4.23277,-3.13535 5.63309,-3.13535c1.65492,0 2.92793,0.614774 3.81904,1.84432l4.96476,5.90183c-2.92793,3.68865 -6.61967,7.13138 -11.0752,10.3282c-4.45555,3.19683 -9.48396,5.96331 -15.0852,8.29946c-5.60126,2.33614 -11.6799,4.14973 -18.2359,5.44075c-6.55602,1.29103 -13.3985,1.93654 -20.5274,1.93654c-12.0936,0 -23.137,-2.12097 -33.1302,-6.36292c-9.99316,-4.24194 -18.586,-10.3897 -25.7785,-18.4432c-7.19253,-8.05355 -12.7938,-17.9207 -16.8038,-29.6014c-4.00999,-11.6807 -6.01499,-24.9598 -6.01499,-39.8374c0,-14.0169 1.90952,-26.8042 5.72856,-38.3619c3.81904,-11.5578 9.38848,-21.5171 16.7083,-29.878c7.31983,-8.36093 16.2946,-14.8468 26.9242,-19.4576c10.6297,-4.61081 22.8188,-6.91621 36.5673,-6.91621c12.3482,0 23.328,1.9058 32.9392,5.7174c9.61126,3.8116 17.9813,8.97571 25.1102,15.4923l-4.7738,6.2707Z" style="fill:#000;fill-rule:nonzero;"/><path d="M1944.26,81.888c13.6213,0 25.8104,2.24393 36.5673,6.73178c10.757,4.48785 19.8272,10.8508 27.2107,19.0887c7.38348,8.23798 13.0166,18.1666 16.8993,29.7858c3.88269,11.6192 5.82404,24.6217 5.82404,39.0074c0,14.3857 -1.94135,27.3575 -5.82404,38.9152c-3.88269,11.5578 -9.51578,21.4556 -16.8993,29.6936c-7.38348,8.23798 -16.4537,14.5702 -27.2107,18.9965c-10.757,4.42638 -22.9461,6.63956 -36.5673,6.63956c-13.6213,0 -25.8104,-2.21319 -36.5673,-6.63956c-10.757,-4.42638 -19.859,-10.7586 -27.3062,-18.9965c-7.44713,-8.23798 -13.112,-18.1358 -16.9947,-29.6936c-3.88269,-11.5578 -5.82404,-24.5295 -5.82404,-38.9152c0,-14.3857 1.94135,-27.3882 5.82404,-39.0074c3.88269,-11.6192 9.54761,-21.5478 16.9947,-29.7858c7.44713,-8.23798 16.5492,-14.6009 27.3062,-19.0887c10.757,-4.48785 22.9461,-6.73178 36.5673,-6.73178ZM1944.26,256.914c11.3298,0 21.2275,-1.87506 29.6931,-5.62519c8.46554,-3.75012 15.5308,-9.1294 21.1957,-16.1378c5.66491,-7.00843 9.89769,-15.4616 12.6983,-25.3594c2.80063,-9.89787 4.20095,-20.9945 4.20095,-33.29c0,-12.1725 -1.40032,-23.2385 -4.20095,-33.1978c-2.80063,-9.95935 -7.0334,-18.474 -12.6983,-25.5439c-5.66491,-7.06991 -12.7301,-12.5107 -21.1957,-16.3223c-8.46554,-3.8116 -18.3632,-5.7174 -29.6931,-5.7174c-11.3298,0 -21.2275,1.9058 -29.6931,5.7174c-8.46554,3.8116 -15.5308,9.25236 -21.1957,16.3223c-5.66491,7.06991 -9.92951,15.5845 -12.7938,25.5439c-2.86428,9.95935 -4.29642,21.0253 -4.29642,33.1978c0,12.2955 1.43214,23.3922 4.29642,33.29c2.86428,9.89787 7.12888,18.351 12.7938,25.3594c5.66491,7.00843 12.7301,12.3877 21.1957,16.1378c8.46554,3.75012 18.3632,5.62519 29.6931,5.62519Z" style="fill:#000;fill-rule:nonzero;"/><path d="M2051.77,268.349l0,-183.51l9.92951,0c3.30984,0 5.21936,1.53694 5.72856,4.61081l1.71857,26.5583c3.69174,-5.04115 7.63809,-9.65196 11.839,-13.8324c4.20095,-4.18047 8.68832,-7.7769 13.4621,-10.7893c4.7738,-3.01239 9.86586,-5.34854 15.2762,-7.00843c5.41031,-1.65989 11.107,-2.48984 17.0902,-2.48984c13.8759,0 24.9511,3.90382 33.2257,11.7115c8.27459,7.80764 13.8759,18.6584 16.8038,32.5523c2.29143,-7.6232 5.50579,-14.2013 9.64308,-19.7343c4.1373,-5.53297 8.87927,-10.113 14.2259,-13.7402c5.34666,-3.62717 11.1707,-6.33218 17.4721,-8.11502c6.30142,-1.78285 12.762,-2.67427 19.3816,-2.67427c9.4203,0 17.8858,1.5062 25.3966,4.51859c7.51078,3.01239 13.9077,7.46951 19.1907,13.3713c5.28301,5.90183 9.32483,13.1562 12.1255,21.763c2.80063,8.60684 4.20095,18.4432 4.20095,29.5092l0,117.299l-18.3314,0l0,-117.299c0,-17.9514 -4.00999,-31.6301 -12.03,-41.0362c-8.01999,-9.40605 -19.4771,-14.1091 -34.3714,-14.1091c-6.61967,0 -12.9529,1.16807 -18.9997,3.50421c-6.04682,2.33614 -11.3935,5.80962 -16.04,10.4204c-4.6465,4.61081 -8.33824,10.3589 -11.0752,17.2444c-2.73698,6.88547 -4.10547,14.8775 -4.10547,23.9762l0,117.299l-18.1405,0l0,-117.299c0,-17.8285 -3.69174,-31.4765 -11.0752,-40.944c-7.38348,-9.46753 -18.1405,-14.2013 -32.2709,-14.2013c-10.3114,0 -19.859,2.98166 -28.6428,8.94497c-8.7838,5.96331 -16.6128,14.232 -23.4871,24.8061l0,138.693l-18.1405,0Z" style="fill:#000;fill-rule:nonzero;"/><defs><linearGradient id="tag1" x1="0" y1="0" x2="1" y2="0" gradientUnits="userSpaceOnUse" gradientTransform="matrix(-5.40954e-14,-336.388,449.118,-7.22238e-14,225.483,336.388)"><stop offset="0%" style="stop-color:#28a69f;stop-opacity:1"/><stop offset="20%" style="stop-color:#28b19a;stop-opacity:1"/><stop offset="43%" style="stop-color:#29bc95;stop-opacity:1"/><stop offset="100%" style="stop-color:#29c193;stop-opacity:1"/><stop offset="100%" style="stop-color:#29c193;stop-opacity:1"/></linearGradient><linearGradient id="tag2" x1="0" y1="0" x2="1" y2="0" gradientUnits="userSpaceOnUse" gradientTransform="matrix(311.269,-6.91156e-14,1.29622e-14,58.3764,138.773,307.216)"><stop offset="0%" style="stop-color:#085fea;stop-opacity:1"/><stop offset="52%" style="stop-color:#028ff9;stop-opacity:1"/><stop offset="100%" style="stop-color:#00a1ff;stop-opacity:1"/><stop offset="100%" style="stop-color:#00a1ff;stop-opacity:1"/></linearGradient><linearGradient id="tag3" x1="0" y1="0" x2="1" y2="0" gradientUnits="userSpaceOnUse" gradientTransform="matrix(-4.42585e-14,-275.219,108.833,-1.75016e-14,213.311,278.028)"><stop offset="0%" style="stop-color:#ff7d00;stop-opacity:1"/><stop offset="20%" style="stop-color:#ff9000;stop-opacity:1"/><stop offset="42%" style="stop-color:#ffa400;stop-opacity:1"/><stop offset="100%" style="stop-color:#ffae00;stop-opacity:1"/><stop offset="100%" style="stop-color:#ffae00;stop-opacity:1"/></linearGradient></defs></svg>